<?xml version="1.0" standalone="no"?>
<!DOCTYPE svg PUBLIC "-//W3C//DTD SVG 20010904//EN"
 "http://www.w3.org/TR/2001/REC-SVG-20010904/DTD/svg10.dtd">
<svg version="1.0" xmlns="http://www.w3.org/2000/svg"
 width="48.000000pt" height="48.000000pt" viewBox="0 0 68.000000 68.000000"
 preserveAspectRatio="xMidYMid meet">
<metadata>
Created by potrace 1.10, written by Peter Selinger 2001-2011
</metadata>
<g transform="translate(0.000000,48.000000) scale(0.100000,-0.100000)"
fill="#000000" stroke="none">
<path d="M72 448 c-7 -7 -12 -23 -12 -35 0 -13 -9 -41 -20 -63 -11 -22 -20
-45 -20 -53 0 -8 9 -22 20 -32 17 -16 20 -31 20 -120 0 -65 4 -105 12 -113 17
-17 319 -17 336 0 8 8 12 48 12 113 0 89 3 104 20 120 25 23 25 36 0 85 -11
22 -20 50 -20 63 0 12 -5 28 -12 35 -17 17 -319 17 -336 0z m326 -30 c3 -17
-10 -18 -157 -18 -128 0 -161 3 -161 13 0 8 3 17 7 21 4 3 75 5 157 4 134 -3
151 -5 154 -20z m-266 -68 c-4 -27 -8 -30 -43 -30 -44 0 -43 0 -27 35 8 19 19
25 43 25 29 0 31 -2 27 -30z m98 0 c0 -29 -2 -30 -45 -30 -35 0 -43 3 -40 15
3 8 7 22 10 30 3 10 17 15 40 15 32 0 35 -2 35 -30z m94 14 c13 -35 7 -44 -34
-44 -38 0 -40 2 -40 30 0 27 3 30 34 30 22 0 36 -6 40 -16z m94 -9 c16 -36 17
-35 -28 -35 -28 0 -40 4 -40 14 0 8 -3 21 -6 30 -5 13 1 16 28 16 28 0 37 -5
46 -25z m-300 -72 c-5 -26 -41 -27 -63 -3 -18 20 -18 20 24 20 35 0 42 -3 39
-17z m112 -8 c0 -33 -42 -45 -70 -20 -33 30 -25 45 25 45 41 0 45 -2 45 -25z
m110 13 c0 -18 -31 -48 -50 -48 -21 0 -40 20 -40 42 0 15 8 18 45 18 28 0 45
-4 45 -12z m85 -8 c-20 -23 -45 -26 -63 -8 -21 21 -13 28 35 28 45 0 46 0 28
-20z m-275 -45 c15 -18 61 -20 78 -3 9 9 15 9 24 0 16 -16 49 -15 74 2 11 8
31 12 47 9 l28 -5 -3 -97 c-3 -82 -6 -96 -20 -99 -16 -3 -18 6 -18 77 l0 81
-60 0 -60 0 0 -80 0 -81 -77 3 -78 3 -3 97 c-2 86 -1 97 15 101 32 8 40 7 53
-8z m190 -125 l0 -70 -40 0 -40 0 0 70 0 70 40 0 40 0 0 -70z"/>
<path d="M120 150 l0 -50 50 0 50 0 0 50 0 50 -50 0 -50 0 0 -50z m80 0 c0
-27 -3 -30 -30 -30 -27 0 -30 3 -30 30 0 27 3 30 30 30 27 0 30 -3 30 -30z"/>
</g>
</svg>
